[Header]
FileType HTR
DataType HTRS
FileVersion 1
NumSegments 64
NumFrames 3
DataFrameRate 24
EulerRotationOrder ZYX
CalibrationUnits mm
RotationUnits Degrees
GlobalAxisofGravity Y
BoneLengthAxis Y
ScaleFactor 1.0
[SegmentNames&Hierarchy]
Hips	GLOBAL
Spine	Hips
Spine1	Spine
Spine2	Spine1
Neck	Spine2
Head	Neck
LeftEye	Head
RightEye	Head
LeftShoulder	Spine2
LeftArm	LeftShoulder
LeftForeArm	LeftArm
LeftHand	LeftForeArm
LeftHandThumb1	LeftHand
LeftHandThumb2	LeftHandThumb1
LeftHandThumb3	LeftHandThumb2
LeftHandThumb4	LeftHandThumb3
LeftHandIndex1	LeftHand
LeftHandIndex2	LeftHandIndex1
LeftHandIndex3	LeftHandIndex2
LeftHandIndex4	LeftHandIndex3
LeftHandMiddle1	LeftHand
LeftHandMiddle2	LeftHandMiddle1
LeftHandMiddle3	LeftHandMiddle2
LeftHandMiddle4	LeftHandMiddle3
LeftHandRing1	LeftHand
LeftHandRing2	LeftHandRing1
LeftHandRing3	LeftHandRing2
LeftHandRing4	LeftHandRing3
LeftHandPinky1	LeftHand
LeftHandPinky2	LeftHandPinky1
LeftHandPinky3	LeftHandPinky2
LeftHandPinky4	LeftHandPinky3
RightShoulder	Spine2
RightArm	RightShoulder
RightForeArm	RightArm
RightHand	RightForeArm
RightHandPinky1	RightHand
RightHandPinky2	RightHandPinky1
RightHandPinky3	RightHandPinky2
RightHandPinky4	RightHandPinky3
RightHandRing1	RightHand
RightHandRing2	RightHandRing1
RightHandRing3	RightHandRing2
RightHandRing4	RightHandRing3
RightHandMiddle1	RightHand
RightHandMiddle2	RightHandMiddle1
RightHandMiddle3	RightHandMiddle2
RightHandMiddle4	RightHandMiddle3
RightHandIndex1	RightHand
RightHandIndex2	RightHandIndex1
RightHandIndex3	RightHandIndex2
RightHandIndex4	RightHandIndex3
RightHandThumb1	RightHand
RightHandThumb2	RightHandThumb1
RightHandThumb3	RightHandThumb2
RightHandThumb4	RightHandThumb3
LeftUpLeg	Hips
LeftLeg	LeftUpLeg
LeftFoot	LeftLeg
LeftToeBase	LeftFoot
RightUpLeg	Hips
RightLeg	RightUpLeg
RightFoot	RightLeg
RightToeBase	RightFoot
[BasePosition]
Hips	0	0	0	0	0	0	1
Spine	0	0	0	0	0	0	1
Spine1	0	0	0	0	0	0	1
Spine2	0	0	0	0	0	0	1
Neck	0	0	0	0	0	0	1
Head	0	0	0	0	0	0	1
LeftEye	0	0	0	0	0	0	1
RightEye	0	0	0	0	0	0	1
LeftShoulder	0	0	0	0	0	0	1
LeftArm	0	0	0	0	0	0	1
LeftForeArm	0	0	0	0	0	0	1
LeftHand	0	0	0	0	0	0	1
LeftHandThumb1	0	0	0	0	0	0	1
LeftHandThumb2	0	0	0	0	0	0	1
LeftHandThumb3	0	0	0	0	0	0	1
LeftHandThumb4	0	0	0	0	0	0	1
LeftHandIndex1	0	0	0	0	0	0	1
LeftHandIndex2	0	0	0	0	0	0	1
LeftHandIndex3	0	0	0	0	0	0	1
LeftHandIndex4	0	0	0	0	0	0	1
LeftHandMiddle1	0	0	0	0	0	0	1
LeftHandMiddle2	0	0	0	0	0	0	1
LeftHandMiddle3	0	0	0	0	0	0	1
LeftHandMiddle4	0	0	0	0	0	0	1
LeftHandRing1	0	0	0	0	0	0	1
LeftHandRing2	0	0	0	0	0	0	1
LeftHandRing3	0	0	0	0	0	0	1
LeftHandRing4	0	0	0	0	0	0	1
LeftHandPinky1	0	0	0	0	0	0	1
LeftHandPinky2	0	0	0	0	0	0	1
LeftHandPinky3	0	0	0	0	0	0	1
LeftHandPinky4	0	0	0	0	0	0	1
RightShoulder	0	0	0	0	0	0	1
RightArm	0	0	0	0	0	0	1
RightForeArm	0	0	0	0	0	0	1
RightHand	0	0	0	0	0	0	1
RightHandPinky1	0	0	0	0	0	0	1
RightHandPinky2	0	0	0	0	0	0	1
RightHandPinky3	0	0	0	0	0	0	1
RightHandPinky4	0	0	0	0	0	0	1
RightHandRing1	0	0	0	0	0	0	1
RightHandRing2	0	0	0	0	0	0	1
RightHandRing3	0	0	0	0	0	0	1
RightHandRing4	0	0	0	0	0	0	1
RightHandMiddle1	0	0	0	0	0	0	1
RightHandMiddle2	0	0	0	0	0	0	1
RightHandMiddle3	0	0	0	0	0	0	1
RightHandMiddle4	0	0	0	0	0	0	1
RightHandIndex1	0	0	0	0	0	0	1
RightHandIndex2	0	0	0	0	0	0	1
RightHandIndex3	0	0	0	0	0	0	1
RightHandIndex4	0	0	0	0	0	0	1
RightHandThumb1	0	0	0	0	0	0	1
RightHandThumb2	0	0	0	0	0	0	1
RightHandThumb3	0	0	0	0	0	0	1
RightHandThumb4	0	0	0	0	0	0	1
LeftUpLeg	0	0	0	0	0	0	1
LeftLeg	0	0	0	0	0	0	1
LeftFoot	0	0	0	0	0	0	1
LeftToeBase	0	0	0	0	0	0	1
RightUpLeg	0	0	0	0	0	0	1
RightLeg	0	0	0	0	0	0	1
RightFoot	0	0	0	0	0	0	1
RightToeBase	0	0	0	0	0	0	1
[Hips]
21	-1450.493286	928.5053101	11.55802631	5.528477669	-60.96272278	0.9907841682	1.0
22	-1524.520996	934.9663086	7.516103745	8.317188263	-60.50318527	-2.607840061	1.0
23	-1595.144287	950.8895264	5.371518135	9.39831543	-60.76885605	-4.268818855	1.0
[Spine]
21	0	101.8159943	1.315000057	5.264687538	2.414482117	1.97484684	1.0
22	0	101.8159943	1.315000057	5.600440979	2.639823914	3.359504461	1.0
23	0	101.8159943	1.315000057	5.783581257	3.637619734	3.580037355	1.0
[Spine1]
21	0	100.8349991	-10.00800037	3.91425252	3.493372917	0.6096688509	1.0
22	0	100.8349991	-10.00800037	4.147627354	3.34264946	1.364407182	1.0
23	0	100.8349991	-10.00800037	4.208601475	3.605095625	1.341018438	1.0
[Spine2]
21	0	91	-13.73399925	3.889586449	3.520192385	0.64388448	1.0
22	0	91	-13.73399925	4.11802578	3.372035027	1.395907521	1.0
23	0	91	-13.73399925	4.18464756	3.624434471	1.367884755	1.0
[Neck]
21	0	166.7169952	-25.16200066	3.968762875	6.024599075	1.236939549	1.0
22	0	166.7169952	-25.16200066	3.818884611	5.964678288	1.181411266	1.0
23	0	166.7169952	-25.16200066	3.851849079	5.709692478	1.565862536	1.0
[Head]
21	0	96.17900085	16.84999847	-14.14957905	34.88166046	-17.27343559	1.0
22	0	96.17900085	16.84999847	-15.51398849	34.45913696	-18.62595749	1.0
23	0	96.17900085	16.84999847	-14.6434021	33.66012955	-16.82508469	1.0
[LeftEye]
21	30.6760006	64.09500122	92.83599854	0	0	0	1.0
22	30.6760006	64.09500122	92.83599854	0	0	0	1.0
23	30.6760006	64.09500122	92.83599854	0	0	0	1.0
[RightEye]
21	-30.6760006	64.09500122	92.83499908	0	0	0	1.0
22	-30.6760006	64.09500122	92.83499908	0	0	0	1.0
23	-30.6760006	64.09500122	92.83499908	0	0	0	1.0
[LeftShoulder]
21	45.70400238	109.4599991	-26.28000069	0.02925084159	-5.178408146	-9.061771393	1.0
22	45.70400238	109.4599991	-26.28000069	0.1827990115	-4.632528782	-8.734847069	1.0
23	45.70400238	109.4599991	-26.28000069	0.3697722554	-3.371946812	-8.479354858	1.0
[LeftArm]
21	105.923996	-5.24600029	-22.32099915	14.90797043	-15.68856144	-67.95985413	1.0
22	105.923996	-5.24600029	-22.32099915	15.81287098	-15.74943733	-69.94264221	1.0
23	105.923996	-5.24600029	-22.32099915	17.2592907	-15.27900314	-71.08838654	1.0
[LeftForeArm]
21	278.414978	-0.0009999999311	0	2.507285672e-06	-32.52321243	-0.0001971221354	1.0
22	278.414978	-0.0009999999311	0	3.720816721e-07	-34.00910187	-0.0001992288744	1.0
23	278.414978	-0.0009999999311	0	-1.28136071e-05	-34.62689209	-0.000198713693	1.0
[LeftHand]
21	283.2879944	0	0	8.048740387	-16.64200592	2.938256979	1.0
22	283.2879944	0	0	7.239724159	-22.09440804	4.642486572	1.0
23	283.2879944	0	0	7.848215103	-26.19603348	5.664485455	1.0
[LeftHandThumb1]
21	24.6609993	-15.75	26.8239994	30.58115005	-20.32058144	11.29641056	1.0
22	24.6609993	-15.75	26.8239994	30.58115005	-20.32058144	11.29641056	1.0
23	24.6609993	-15.75	26.8239994	30.58115005	-20.32058144	11.29641056	1.0
[LeftHandThumb2]
21	32.29800034	-18.64699936	18.64699936	11.10882473	16.99390221	-2.168536186	1.0
22	32.29800034	-18.64699936	18.64699936	11.05497074	16.0361805	-1.710274935	1.0
23	32.29800034	-18.64699936	18.64699936	10.36300278	17.29751968	-1.336716771	1.0
[LeftHandThumb3]
21	26.52600098	-15.31499958	15.31499958	-15.12328339	8.077691078	10.01983452	1.0
22	26.52600098	-15.31499958	15.31499958	-15.07027817	8.202141762	9.982056618	1.0
23	26.52600098	-15.31499958	15.31499958	-15.02778053	8.30186367	9.951797485	1.0
[LeftHandThumb4]
21	19.54599953	-11.28499985	11.28499985	0	0	0	1.0
22	19.54599953	-11.28499985	11.28499985	0	0	0	1.0
23	19.54599953	-11.28499985	11.28499985	0	0	0	1.0
[LeftHandIndex1]
21	91.09299469	-5.170999527	22.60099792	-1.165537357	-6.042503834	-22.52251244	1.0
22	91.09299469	-5.170999527	22.60099792	-0.9690653086	-6.178058624	-20.05669975	1.0
23	91.09299469	-5.170999527	22.60099792	-0.9348695278	-6.338730812	-19.4480629	1.0
[LeftHandIndex2]
21	36.76399994	0	0	-0.7134313583	2.797077417	-28.61294937	1.0
22	36.76399994	0	0	-0.712063849	2.794607162	-28.58523369	1.0
23	36.76399994	0	0	-0.7152716517	2.80042243	-28.65052605	1.0
[LeftHandIndex3]
21	28.83100128	0	0	-0.2928986549	1.826739311	-18.21701241	1.0
22	28.83100128	0	0	-0.2920039594	1.824026227	-18.18905258	1.0
23	28.83100128	0	0	-0.2941125929	1.830422521	-18.25496292	1.0
[LeftHandIndex4]
21	23.92700005	0	0	0	0	0	1.0
22	23.92700005	0	0	0	0	0	1.0
23	23.92700005	0	0	0	0	0	1.0
[LeftHandMiddle1]
21	95.33399963	0	0	-2.357918739	2.319950342	-35.09267044	1.0
22	95.33399963	0	0	-2.228814125	2.385029554	-33.68762589	1.0
23	95.33399963	0	0	-2.279533148	2.213115454	-34.24717712	1.0
[LeftHandMiddle2]
21	36.98199844	0	0	-0.5491122603	2.472473145	-25.03956032	1.0
22	36.98199844	0	0	-0.5450335145	2.463707924	-24.9445343	1.0
23	36.98199844	0	0	-0.5511481762	2.476810217	-25.08649635	1.0
[LeftHandMiddle3]
21	29.50900078	0	0	-0.3823924959	2.078937292	-20.84312248	1.0
22	29.50900078	0	0	-0.3789325356	2.069778681	-20.74720764	1.0
23	29.50900078	0	0	-0.3841134012	2.083436728	-20.89050674	1.0
[LeftHandMiddle4]
21	28.3390007	0	0	0	0	0	1.0
22	28.3390007	0	0	0	0	0	1.0
23	28.3390007	0	0	0	0	0	1.0
[LeftHandRing1]
21	91.04499817	-0.4390000105	-18.65100098	-2.072773695	3.586815119	-31.91898918	1.0
22	91.04499817	-0.4390000105	-18.65100098	-1.941500187	3.965292454	-30.42990875	1.0
23	91.04499817	-0.4390000105	-18.65100098	-1.953008056	3.994092941	-30.56084824	1.0
[LeftHandRing2]
21	31.54000092	0	0	-0.8536754251	3.039751291	-31.36681366	1.0
22	31.54000092	0	0	-0.8484486341	3.0311656	-31.26811981	1.0
23	31.54000092	0	0	-0.8570994735	3.04531908	-31.43117714	1.0
[LeftHandRing3]
21	29.37700081	0	0	-0.9499069452	3.192038059	-33.13732147	1.0
22	29.37700081	0	0	-0.9443351626	3.18351531	-33.03709412	1.0
23	29.37700081	0	0	-0.9535455704	3.197600126	-33.20254135	1.0
[LeftHandRing4]
21	26.47500038	0	0	0	0	0	1.0
22	26.47500038	0	0	0	0	0	1.0
23	26.47500038	0	0	0	0	0	1.0
[LeftHandPinky1]
21	80.77799988	-4.887000084	-38.06099701	-1.878675103	3.114400387	-29.5429306	1.0
22	80.77799988	-4.887000084	-38.06099701	-1.839226604	3.760616064	-29.07368088	1.0
23	80.77799988	-4.887000084	-38.06099701	-1.849974871	4.002093315	-29.19524193	1.0
[LeftHandPinky2]
21	36	0	0	-0.4731340706	2.302993536	-23.21590996	1.0
22	36	0	0	-0.4558410645	2.262253761	-22.78153992	1.0
23	36	0	0	-0.4557690322	2.262108088	-22.77990913	1.0
[LeftHandPinky3]
21	21.14200211	0	0	-0.5378928185	2.44835043	-24.77838707	1.0
22	21.14200211	0	0	-0.5239619017	2.417967081	-24.45014	1.0
23	21.14200211	0	0	-0.5203607082	2.410036564	-24.3646183	1.0
[LeftHandPinky4]
21	19.75699997	0	0	0	0	0	1.0
22	19.75699997	0	0	0	0	0	1.0
23	19.75699997	0	0	0	0	0	1.0
[RightShoulder]
21	-45.70000076	109.4620056	-26.28000069	2.0171206	3.150079966	10.00992298	1.0
22	-45.70000076	109.4620056	-26.28000069	1.604232311	3.772147179	10.10920143	1.0
23	-45.70000076	109.4620056	-26.28000069	0.9642279148	4.537519455	10.18092346	1.0
[RightArm]
21	-105.9280014	-5.248000145	-22.32099915	20.21808815	2.517749548	65.90668488	1.0
22	-105.9280014	-5.248000145	-22.32099915	22.23337173	3.890013218	64.47918701	1.0
23	-105.9280014	-5.248000145	-22.32099915	25.42034912	6.387868404	61.93317032	1.0
[RightForeArm]
21	-278.414978	0	0	1.335715865e-06	7.35407877	2.948539986e-06	1.0
22	-278.414978	0	0	-8.644273066e-07	6.798174858	3.320054384e-05	1.0
23	-278.414978	0	0	8.90011961e-07	7.329759121	9.731296814e-06	1.0
[RightHand]
21	-283.2879944	0	0.0009999999311	-0.8590154052	-1.491670012	-4.684874535	1.0
22	-283.2879944	0	0.0009999999311	-1.656118631	-2.009744167	-7.005196571	1.0
23	-283.2879944	0	0.0009999999311	-0.9071947932	-2.86867857	-10.74354744	1.0
[RightHandPinky1]
21	-80.76699829	-4.885000229	-38.06000137	-2.262266159	-3.844322205	36.92490387	1.0
22	-80.76699829	-4.885000229	-38.06000137	-2.250854254	-3.685352802	36.78446579	1.0
23	-80.76699829	-4.885000229	-38.06000137	-2.26880908	-4.054718018	37.00525284	1.0
[RightHandPinky2]
21	-36	0	0.0009999999311	-0.3861536682	-1.852941751	23.56193542	1.0
22	-36	0	0.0009999999311	-0.386918664	-1.854679823	23.58538055	1.0
23	-36	0	0.0009999999311	-0.3898054063	-1.861285806	23.67455292	1.0
[RightHandPinky3]
21	-21.14200211	0	0	-0.16647017	-1.231692195	15.3940649	1.0
22	-21.14200211	0	0	-0.1669750661	-1.233534694	15.41759396	1.0
23	-21.14200211	0	0	-0.1689260602	-1.240579128	15.50792599	1.0
[RightHandPinky4]
21	-19.75699997	0	0	0	0	0	1.0
22	-19.75699997	0	0	0	0	0	1.0
23	-19.75699997	0	0	0	0	0	1.0
[RightHandRing1]
21	-91.03599548	-0.4390000105	-18.65100098	-2.010383844	-6.870226383	33.8201828	1.0
22	-91.03599548	-0.4390000105	-18.65100098	-1.98649621	-6.730810165	33.51177216	1.0
23	-91.03599548	-0.4390000105	-18.65100098	-2.067302227	-6.882847786	34.54245377	1.0
[RightHandRing2]
21	-31.54000092	0	0	-0.3690229058	-1.813095927	23.00620651	1.0
22	-31.54000092	0	0	-0.3691716492	-1.813485146	23.01142502	1.0
23	-31.54000092	0	0	-0.3701180518	-1.815698147	23.04117393	1.0
[RightHandRing3]
21	-29.37700081	0	0	-0.2645827234	-1.544313788	19.44254112	1.0
22	-29.37700081	0	0	-0.2647503614	-1.544778824	19.44871902	1.0
23	-29.37700081	0	0	-0.2655286491	-1.547011256	19.47788429	1.0
[RightHandRing4]
21	-26.47500038	0	0	0	0	0	1.0
22	-26.47500038	0	0	0	0	0	1.0
23	-26.47500038	0	0	0	0	0	1.0
[RightHandMiddle1]
21	-95.32500458	0	0	-1.852850676	-3.758403301	31.7645092	1.0
22	-95.32500458	0	0	-1.843405366	-3.571788549	31.64188766	1.0
23	-95.32500458	0	0	-1.927097917	-3.885521889	32.72700119	1.0
[RightHandMiddle2]
21	-36.98199844	0	0	-0.2424373627	-1.480125785	18.60373116	1.0
22	-36.98199844	0	0	-0.2425219268	-1.480349183	18.60659599	1.0
23	-36.98199844	0	0	-0.2425989211	-1.480584383	18.6097126	1.0
[RightHandMiddle3]
21	-29.50900078	0	0	-0.08757679909	-0.8992805481	11.14916801	1.0
22	-29.50900078	0	0	-0.08761923015	-0.8995096087	11.15204048	1.0
23	-29.50900078	0	0	-0.08767154813	-0.899750948	11.1551075	1.0
[RightHandMiddle4]
21	-28.3390007	0	0.0009999999311	0	0	0	1.0
22	-28.3390007	0	0.0009999999311	0	0	0	1.0
23	-28.3390007	0	0.0009999999311	0	0	0	1.0
[RightHandIndex1]
21	-91.08300018	-5.167999744	22.60099792	-1.273331285	0.1080033928	26.84139824	1.0
22	-91.08300018	-5.167999744	22.60099792	-1.280872703	0.3094824851	26.59897995	1.0
23	-91.08300018	-5.167999744	22.60099792	-1.347062349	-0.05998663977	28.06085587	1.0
[RightHandIndex2]
21	-36.76399994	0	0	-0.1026355997	-0.9705296159	12.07296085	1.0
22	-36.76399994	0	0	-0.1027109697	-0.970862627	12.07720757	1.0
23	-36.76399994	0	0	-0.1030198559	-0.9723020196	12.09539604	1.0
[RightHandIndex3]
21	-28.83100128	0	0	-0.1067754328	-0.989713192	12.31531239	1.0
22	-28.83100128	0	0	-0.1068527177	-0.9900507331	12.31960964	1.0
23	-28.83100128	0	0	-0.10716784	-0.9914955497	12.33791256	1.0
[RightHandIndex4]
21	-23.92700005	0	0	0	0	0	1.0
22	-23.92700005	0	0	0	0	0	1.0
23	-23.92700005	0	0	0	0	0	1.0
[RightHandThumb1]
21	-24.64799881	-15.72700024	26.82600021	-0.1902875453	0.8218618631	0.3671384752	1.0
22	-24.64799881	-15.72700024	26.82600021	-0.1902875453	0.8218618631	0.3671384752	1.0
23	-24.64799881	-15.72700024	26.82600021	-0.1902875453	0.8218618631	0.3671384752	1.0
[RightHandThumb2]
21	-32.29800034	-18.64699936	18.64699936	17.8375473	-3.310853481	-18.01502419	1.0
22	-32.29800034	-18.64699936	18.64699936	17.76506233	-3.043027639	-17.90788078	1.0
23	-32.29800034	-18.64699936	18.64699936	17.81215668	-3.395148039	-17.83995819	1.0
[RightHandThumb3]
21	-26.52600098	-15.31399918	15.31399918	-1.033545494	9.953164101	-24.62310791	1.0
22	-26.52600098	-15.31399918	15.31399918	-0.7026491165	9.199988365	-24.31601143	1.0
23	-26.52600098	-15.31399918	15.31399918	-1.102353334	10.12474728	-24.63090706	1.0
[RightHandThumb4]
21	-19.54599953	-11.28499985	11.28499985	0	0	0	1.0
22	-19.54599953	-11.28499985	11.28499985	0	0	0	1.0
23	-19.54599953	-11.28499985	11.28499985	0	0	0	1.0
[LeftUpLeg]
21	82.07800293	-67.51699829	-15.99599934	0.8982703686	5.211785793	20.47551155	1.0
22	82.07800293	-67.51699829	-15.99599934	-8.667099953	-0.3053643703	21.00645447	1.0
23	82.07800293	-67.51699829	-15.99599934	-17.79011154	-2.56790328	18.55496597	1.0
[LeftLeg]
21	0	-443.7049866	2.845999956	37.94923019	-7.786506653	-6.677118778	1.0
22	0	-443.7049866	2.845999956	56.72612762	-3.98065567	-6.241785526	1.0
23	0	-443.7049866	2.845999956	68.80900574	-2.873182297	-7.843874931	1.0
[LeftFoot]
21	0	-444.2789917	-29.8219986	1.776751518	-4.979992867	-6.652003288	1.0
22	0	-444.2789917	-29.8219986	12.75510406	0.5997972488	-3.682828426	1.0
23	0	-444.2789917	-29.8219986	10.07559395	0.1033857688	-1.133376002	1.0
[LeftToeBase]
21	0	-87.28699493	107.1060028	-26.12725258	-1.992337584	-4.636879921	1.0
22	0	-87.28699493	107.1060028	-11.71021366	-1.025544407e-05	5.652666914e-06	1.0
23	0	-87.28699493	107.1060028	-11.46291637	1.729558062e-05	-1.120793058e-05	1.0
[RightUpLeg]
21	-82.07800293	-67.51699829	-15.99599934	-46.91584396	-9.780912399	-3.595454216	1.0
22	-82.07800293	-67.51699829	-15.99599934	-44.36410522	-9.217252731	0.1084971204	1.0
23	-82.07800293	-67.51699829	-15.99599934	-39.21290588	-8.632570267	2.75397706	1.0
[RightLeg]
21	0	-443.7049866	2.861999989	39.32948685	1.519326329	1.169521332	1.0
22	0	-443.7049866	2.861999989	43.95001984	0.853977263	0.9413722754	1.0
23	0	-443.7049866	2.861999989	43.35241318	0.6196355224	0.8266093135	1.0
[RightFoot]
21	0	-444.2770081	-29.83799934	1.668800235	-0.697314024	4.231207371	1.0
22	0	-444.2770081	-29.83799934	-5.402133465	-0.3679473698	1.96724546	1.0
23	0	-444.2770081	-29.83799934	-9.838225365	-0.451829493	-0.07153255492	1.0
[RightToeBase]
21	0	-87.28699493	107.1060028	-8.833285332	1.434384649e-05	7.493911767e-07	1.0
22	0	-87.28699493	107.1060028	-8.64811039	-1.201212854e-05	3.025065098e-06	1.0
23	0	-87.28699493	107.1060028	-8.825550079	7.144891697e-06	-3.988577078e-07	1.0
[EndOfFile]
